<svg width="279" height="49" viewBox="0 0 279 49" xmlns="http://www.w3.org/2000/svg"><title>ncs-logo-dual</title><g fill="none" fill-rule="evenodd"><path d="M278.722 41.435v-3.679c0-2.053-1.648-3.717-3.682-3.717h-95.179c-2.034 0-3.682 1.664-3.682 3.717v7.358c0 2.053 1.649 3.717 3.682 3.717h95.179c2.034 0 3.682-1.664 3.682-3.717v-3.679zM218.03 10.183V2.937h.848v.73a2.15 2.15 0 0 1 .726-.681c.27-.146.588-.218.958-.218.688 0 1.238.248 1.647.744.41.497.616 1.162.616 1.997 0 .844-.208 1.516-.622 2.016-.415.5-.966.75-1.65.75-.364 0-.683-.067-.958-.197a1.944 1.944 0 0 1-.717-.597v2.702h-.848zm.82-4.621c0 .645.128 1.13.383 1.453.256.323.64.485 1.15.485.49 0 .867-.177 1.132-.534.266-.356.398-.86.398-1.515 0-.59-.137-1.054-.412-1.392-.275-.339-.65-.508-1.127-.508-.489 0-.865.174-1.128.522-.265.348-.396.845-.396 1.489zm5.032 2.553V2.937h.839v.928c.138-.348.326-.608.562-.78.236-.173.527-.26.87-.26.065 0 .112.002.14.004a.517.517 0 0 1 .088.012v.918a1.02 1.02 0 0 0-.078-.007 2.873 2.873 0 0 0-.13-.003c-.463 0-.816.127-1.06.38-.242.253-.363.621-.363 1.104v2.882h-.868zm3.014-2.597c0-.866.217-1.541.65-2.025.431-.484 1.039-.725 1.82-.725.785 0 1.395.24 1.828.723.434.481.652 1.158.652 2.027 0 .87-.216 1.547-.649 2.03-.433.485-1.04.726-1.821.726-.785 0-1.394-.24-1.829-.723-.433-.481-.65-1.159-.65-2.033zm.887 0c0 .642.138 1.133.413 1.472.275.34.668.51 1.18.51.508 0 .897-.17 1.167-.51.27-.34.405-.83.405-1.472 0-.638-.135-1.127-.405-1.467-.27-.34-.659-.51-1.167-.51-.514 0-.909.17-1.182.508-.274.338-.41.828-.41 1.47zm5.307 2.597V3.629h-.85v-.692h.85v-.764c0-.429.098-.75.292-.964.195-.214.486-.321.875-.321.062 0 .139.004.232.014.094.01.23.027.41.053v.783a6.01 6.01 0 0 0-.234-.036 1.305 1.305 0 0 0-.152-.012c-.203 0-.344.056-.425.17-.08.112-.12.326-.12.642v.435h.93v.692h-.93v4.486h-.878zm5.9-1.673h.858c-.093.57-.34 1.02-.742 1.348-.402.33-.909.494-1.52.494-.717 0-1.283-.242-1.698-.726-.415-.483-.622-1.142-.622-1.977 0-.883.205-1.572.617-2.068.412-.497.98-.745 1.703-.745.743 0 1.318.229 1.724.686.407.458.611 1.104.611 1.939 0 .106 0 .186-.003.237a1.43 1.43 0 0 1-.011.15h-3.73c.01.544.145.966.405 1.264.261.298.623.447 1.086.447.354 0 .646-.09.876-.273.23-.182.378-.441.446-.776zm-2.817-1.388h2.837c-.004-.483-.126-.856-.368-1.119-.241-.262-.583-.393-1.027-.393-.428 0-.765.128-1.01.386-.247.258-.39.633-.432 1.126zm4.39 1.378h.834c.033.352.158.617.379.798.22.18.533.27.938.27.373 0 .668-.073.883-.22a.69.69 0 0 0 .323-.601c0-.19-.054-.336-.161-.438-.108-.101-.318-.19-.63-.263l-.97-.251c-.546-.133-.927-.308-1.14-.525-.215-.218-.321-.528-.321-.93 0-.458.173-.822.518-1.09.346-.27.82-.405 1.42-.405.615 0 1.104.144 1.468.43.363.288.545.672.545 1.156v.02h-.844a.82.82 0 0 0-.336-.637c-.204-.15-.482-.224-.832-.224s-.617.061-.799.184a.606.606 0 0 0-.272.536c0 .168.057.299.171.394.114.096.327.178.64.25l.839.198c.598.141 1.01.322 1.235.543.225.221.338.536.338.945 0 .539-.19.957-.568 1.255-.377.298-.905.447-1.584.447-.663 0-1.172-.158-1.527-.474-.355-.316-.538-.771-.547-1.368zm4.9 0h.835c.033.352.159.617.38.798.22.18.532.27.937.27.374 0 .668-.073.883-.22a.69.69 0 0 0 .323-.601c0-.19-.054-.336-.161-.438-.108-.101-.318-.19-.63-.263l-.97-.251c-.546-.133-.926-.308-1.14-.525-.215-.218-.321-.528-.321-.93 0-.458.173-.822.518-1.09.346-.27.82-.405 1.421-.405.614 0 1.103.144 1.467.43.363.288.545.672.545 1.156v.02h-.844a.819.819 0 0 0-.335-.637c-.205-.15-.482-.224-.833-.224-.35 0-.616.061-.799.184a.607.607 0 0 0-.271.536c0 .168.056.299.17.394.114.096.327.178.64.25l.839.198c.598.141 1.01.322 1.235.543.225.221.338.536.338.945 0 .539-.19.957-.567 1.255-.378.298-.906.447-1.585.447-.662 0-1.171-.158-1.527-.474-.355-.316-.537-.771-.547-1.368zm5.254-5.438h.868v.99h-.868v-.99zm0 1.943h.868v5.178h-.868V2.937zm1.93 2.581c0-.866.217-1.541.65-2.025.431-.484 1.039-.725 1.82-.725.785 0 1.395.24 1.828.723.434.481.652 1.158.652 2.027 0 .87-.216 1.547-.649 2.03-.433.485-1.04.726-1.821.726-.785 0-1.395-.24-1.829-.723-.434-.481-.651-1.159-.651-2.033zm.888 0c0 .642.137 1.133.412 1.472.275.34.668.51 1.18.51.508 0 .897-.17 1.167-.51.27-.34.405-.83.405-1.472 0-.638-.134-1.127-.405-1.467-.27-.34-.659-.51-1.167-.51-.514 0-.909.17-1.182.508-.274.338-.41.828-.41 1.47zm8.557 2.597V4.929c0-.51-.077-.861-.234-1.056-.155-.196-.423-.293-.803-.293-.485 0-.862.138-1.13.413-.27.276-.404.667-.404 1.173v2.949h-.868V2.937h.83v.754c.199-.3.435-.522.709-.667.273-.145.59-.218.95-.218.389 0 .717.06.984.177a1.33 1.33 0 0 1 .79.972c.037.169.054.437.054.805v3.355h-.878zm5.375-.692c-.27.284-.557.497-.862.638a2.26 2.26 0 0 1-.966.213c-.528 0-.94-.138-1.236-.413-.296-.276-.444-.657-.444-1.144 0-.47.146-.84.437-1.107.291-.267.734-.44 1.33-.517l.612-.068c.44-.044.71-.088.81-.13.1-.039.166-.09.198-.152.032-.063.048-.2.048-.41 0-.263-.096-.461-.29-.593-.192-.133-.484-.198-.872-.198-.403 0-.706.08-.91.241-.204.161-.306.4-.306.716h-.82V4.46c0-.523.183-.935.55-1.237.366-.304.871-.455 1.514-.455.692 0 1.2.13 1.527.389.327.26.49.664.49 1.216v2.591c0 .223.024.366.072.43.048.065.135.097.26.097a.792.792 0 0 0 .095-.007c.037-.005.081-.013.133-.022v.672a2.357 2.357 0 0 1-.278.06 1.552 1.552 0 0 1-.224.017c-.29 0-.507-.062-.651-.188-.145-.126-.217-.316-.217-.57v-.03zm-.082-1.943c-.232.126-.63.224-1.192.295-.2.025-.349.047-.448.063-.316.051-.542.145-.68.28-.139.135-.208.332-.208.59 0 .258.08.456.24.595.162.138.392.207.69.207.467 0 .85-.118 1.149-.353.3-.235.449-.536.449-.904V5.48zm2.262-4.486h.883v7.12h-.883V.994zm-51.989 15.482h.835c.032.351.158.617.379.798.22.18.533.27.938.27.373 0 .667-.073.882-.22a.69.69 0 0 0 .324-.601c0-.19-.054-.336-.162-.438-.108-.102-.318-.19-.63-.264l-.969-.25c-.546-.133-.927-.308-1.14-.525-.215-.218-.321-.528-.321-.931 0-.457.172-.82.518-1.09.346-.27.82-.404 1.42-.404.615 0 1.104.144 1.467.43.363.288.545.673.545 1.156v.02h-.844a.819.819 0 0 0-.335-.636c-.205-.15-.482-.225-.832-.225-.351 0-.617.061-.8.184a.607.607 0 0 0-.27.536c0 .168.056.299.17.394.114.095.327.178.639.25l.84.198c.597.141 1.01.322 1.234.543.226.22.338.536.338.945 0 .539-.189.957-.567 1.255-.378.298-.906.447-1.584.447-.663 0-1.172-.158-1.527-.474-.356-.316-.538-.772-.548-1.368zm6.271.377c0 .232.033.387.1.464.065.077.187.116.363.116a4.462 4.462 0 0 0 .468-.024v.74a6.27 6.27 0 0 1-.388.058 2.74 2.74 0 0 1-.306.02c-.409 0-.695-.08-.86-.238-.163-.158-.245-.438-.245-.84v-3.477h-.772v-.691h.772v-1.445h.868v1.445h.931v.691h-.93v3.181zm4.95.614c-.27.284-.557.497-.861.638a2.26 2.26 0 0 1-.967.213c-.528 0-.939-.138-1.235-.413-.296-.276-.444-.657-.444-1.144 0-.47.146-.84.437-1.107.29-.267.733-.44 1.33-.517l.61-.068c.442-.044.712-.088.811-.13.1-.039.166-.09.198-.152.032-.063.048-.2.048-.41 0-.263-.096-.461-.288-.593-.194-.133-.486-.198-.874-.198-.402 0-.705.08-.909.241-.204.161-.307.4-.307.715h-.82v-.038c0-.522.184-.935.55-1.238.367-.303.872-.454 1.515-.454.691 0 1.2.13 1.527.389.326.26.489.665.489 1.216v2.591c0 .222.024.366.073.43.048.065.135.097.26.097a.7.7 0 0 0 .094-.007 2.42 2.42 0 0 0 .133-.022v.672a2.357 2.357 0 0 1-.278.06 1.549 1.549 0 0 1-.223.017c-.29 0-.507-.063-.652-.189-.144-.126-.217-.315-.217-.57v-.029zm-.082-1.943c-.232.125-.629.224-1.191.295-.2.026-.349.046-.449.062-.315.052-.542.145-.68.28-.138.136-.208.333-.208.59 0 .259.08.457.242.595.16.139.39.208.69.208.465 0 .848-.118 1.147-.353a1.1 1.1 0 0 0 .449-.904v-.773zm5.692 2.635v-3.186c0-.51-.078-.861-.233-1.056-.157-.196-.424-.293-.804-.293-.485 0-.863.138-1.13.413-.27.276-.404.666-.404 1.172v2.95h-.868V12.98h.83v.754c.2-.3.435-.522.708-.667a2 2 0 0 1 .95-.218c.39 0 .718.06.984.177a1.332 1.332 0 0 1 .792.972c.036.169.053.437.053.804v3.356h-.878zm6.697-7.121v7.12h-.84v-.652c-.222.27-.473.474-.753.609-.28.136-.588.203-.926.203-.688 0-1.238-.247-1.648-.742-.41-.495-.614-1.158-.614-1.99 0-.847.205-1.521.617-2.022.412-.502.96-.752 1.645-.752.36 0 .68.067.957.2.28.134.519.335.721.602v-2.576h.84zm-.811 4.495c0-.64-.13-1.124-.388-1.45-.26-.325-.643-.488-1.151-.488-.489 0-.867.178-1.134.534-.267.356-.4.862-.4 1.516 0 .589.137 1.053.413 1.392.274.338.651.508 1.13.508.486 0 .863-.174 1.13-.522.266-.349.4-.845.4-1.49zm5.359 1.934c-.27.284-.557.497-.861.638a2.26 2.26 0 0 1-.967.213c-.528 0-.94-.138-1.235-.413-.296-.276-.444-.657-.444-1.144 0-.47.145-.84.436-1.107.292-.267.735-.44 1.33-.517l.612-.068c.44-.044.71-.088.81-.13.1-.039.166-.09.199-.152.031-.063.047-.2.047-.41 0-.263-.096-.461-.289-.593-.193-.133-.484-.198-.873-.198-.402 0-.705.08-.91.241-.203.161-.306.4-.306.715h-.82v-.038c0-.522.183-.935.55-1.238.367-.303.872-.454 1.515-.454.69 0 1.2.13 1.527.389.326.26.49.665.49 1.216v2.591c0 .222.023.366.072.43.048.065.135.097.26.097a.693.693 0 0 0 .094-.007c.037-.005.082-.012.133-.022v.672a2.357 2.357 0 0 1-.278.06 1.544 1.544 0 0 1-.223.017c-.29 0-.507-.063-.652-.189-.145-.126-.217-.315-.217-.57v-.029zm-.082-1.943c-.232.125-.629.224-1.191.295-.2.026-.35.046-.45.062-.314.052-.54.145-.68.28-.138.136-.207.333-.207.59 0 .259.08.457.24.595.162.139.392.208.69.208.467 0 .85-.118 1.149-.353a1.1 1.1 0 0 0 .449-.904v-.773zm2.253 2.635V12.98h.84v.928c.137-.348.326-.608.562-.78.236-.173.526-.26.87-.26.065 0 .111.002.14.003a.556.556 0 0 1 .087.013v.918a.983.983 0 0 0-.077-.007 2.888 2.888 0 0 0-.13-.003c-.463 0-.817.127-1.06.38-.242.253-.363.62-.363 1.104v2.882h-.869zm7.796-7.121v7.12h-.84v-.652c-.222.27-.472.474-.752.609-.28.136-.589.203-.926.203-.689 0-1.238-.247-1.648-.742-.41-.495-.615-1.158-.615-1.99 0-.847.206-1.521.618-2.022.412-.502.96-.752 1.645-.752.36 0 .679.067.957.2.279.134.519.335.721.602v-2.576h.84zm-.81 4.495c0-.64-.13-1.124-.389-1.45-.259-.325-.642-.488-1.15-.488-.49 0-.867.178-1.134.534-.267.356-.4.862-.4 1.516 0 .589.137 1.053.412 1.392.275.338.652.508 1.131.508.486 0 .863-.174 1.129-.522.267-.349.4-.845.4-1.49zm1.813.943h.834c.033.351.159.617.38.798.22.18.532.27.938.27.373 0 .667-.073.882-.22a.69.69 0 0 0 .323-.601c0-.19-.054-.336-.161-.438-.108-.102-.318-.19-.63-.264l-.97-.25c-.546-.133-.927-.308-1.14-.525-.214-.218-.32-.528-.32-.931 0-.457.171-.82.518-1.09.345-.27.819-.404 1.42-.404.614 0 1.104.144 1.467.43.363.288.545.673.545 1.156v.02h-.844a.819.819 0 0 0-.335-.636c-.205-.15-.482-.225-.833-.225-.35 0-.616.061-.799.184a.608.608 0 0 0-.272.536c0 .168.057.299.172.394.113.095.327.178.639.25l.839.198c.598.141 1.01.322 1.235.543.225.22.338.536.338.945 0 .539-.19.957-.567 1.255-.378.298-.906.447-1.585.447-.662 0-1.171-.158-1.527-.474-.355-.316-.537-.772-.547-1.368zm-35.5 11.034c-.27.284-.557.497-.861.639a2.265 2.265 0 0 1-.967.212c-.528 0-.94-.138-1.235-.413-.296-.275-.444-.656-.444-1.143 0-.47.145-.84.436-1.107.292-.268.735-.44 1.33-.517l.612-.068c.44-.045.71-.088.81-.13.1-.04.166-.09.199-.153.031-.063.047-.2.047-.409 0-.264-.096-.462-.289-.594-.193-.132-.484-.198-.873-.198-.402 0-.706.08-.91.242-.203.16-.306.399-.306.715h-.82v-.038c0-.523.183-.935.55-1.238.367-.303.872-.455 1.515-.455.69 0 1.2.13 1.527.39.326.259.49.664.49 1.215v2.592c0 .222.023.365.072.43.048.064.135.096.26.096a.69.69 0 0 0 .094-.007c.037-.005.082-.012.133-.022v.673a2.455 2.455 0 0 1-.278.06 1.617 1.617 0 0 1-.223.016c-.29 0-.507-.062-.652-.188-.145-.126-.217-.316-.217-.57v-.03zm-.082-1.942c-.232.125-.629.223-1.191.294-.2.026-.35.047-.45.063-.314.051-.54.145-.68.28-.138.136-.207.332-.207.59 0 .258.08.456.24.595.162.138.392.207.69.207.467 0 .85-.117 1.149-.353.3-.235.449-.536.449-.903v-.773zm3.111-2.543V26.2c0 .509.08.862.24 1.06.158.2.427.298.807.298.502 0 .881-.148 1.14-.442.256-.295.385-.73.385-1.303v-2.79h.868v5.178h-.83v-.773c-.18.3-.413.525-.7.677a2.13 2.13 0 0 1-1.008.226c-.36 0-.674-.06-.94-.183a1.38 1.38 0 0 1-.612-.522 1.294 1.294 0 0 1-.175-.443c-.035-.169-.052-.437-.052-.804v-3.355h.877zm5.78 3.872c0 .231.033.387.099.463.066.078.187.116.363.116a4.166 4.166 0 0 0 .468-.024v.74a6.21 6.21 0 0 1-.388.058 2.74 2.74 0 0 1-.306.02c-.408 0-.695-.08-.86-.238-.163-.157-.245-.437-.245-.84v-3.476h-.772v-.691h.772v-1.446h.869v1.446h.93v.691h-.93v3.18zm5.195 1.305v-3.186c0-.513-.078-.865-.234-1.059-.156-.193-.424-.29-.803-.29-.47 0-.843.133-1.12.4-.276.265-.415.624-.415 1.075v3.06h-.868v-7.12h.868v2.673c.158-.28.375-.494.652-.64.277-.148.6-.22.97-.22.388 0 .716.058.983.176a1.329 1.329 0 0 1 .791.971c.036.17.054.437.054.805v3.355h-.878zm1.915-2.596c0-.867.217-1.542.65-2.025.431-.484 1.039-.726 1.82-.726.785 0 1.395.241 1.828.723.434.482.652 1.157.652 2.028 0 .87-.216 1.547-.649 2.03-.433.484-1.04.725-1.821.725-.785 0-1.395-.24-1.829-.723-.434-.481-.651-1.158-.651-2.032zm.887 0c0 .642.138 1.132.413 1.472.275.34.668.51 1.18.51.508 0 .897-.17 1.167-.51.27-.34.405-.83.405-1.472 0-.639-.135-1.127-.405-1.468-.27-.339-.659-.51-1.167-.51-.514 0-.909.17-1.182.509-.274.337-.41.827-.41 1.469zm5.12 2.596v-5.177h.839v.928c.138-.349.326-.608.562-.78.236-.173.526-.26.87-.26.065 0 .111.001.14.003.03.002.059.006.087.012v.919a.975.975 0 0 0-.077-.008 2.864 2.864 0 0 0-.13-.002c-.463 0-.817.126-1.06.379-.242.253-.364.621-.364 1.105v2.881h-.868zm3.28-7.12h.868v.99h-.868v-.99zm0 1.942h.868v5.178h-.868v-5.178zm3.212 3.873c0 .231.034.387.1.463.065.078.186.116.364.116a4.161 4.161 0 0 0 .468-.024v.74a6.21 6.21 0 0 1-.389.058 2.74 2.74 0 0 1-.306.02c-.409 0-.695-.08-.859-.238-.164-.157-.246-.437-.246-.84v-3.476h-.772v-.691h.772v-1.446h.868v1.446h.932v.691h-.932v3.18zm5.027-3.872h.97l-2.176 5.98c-.206.563-.414.933-.622 1.107-.21.173-.512.26-.907.26a1.56 1.56 0 0 1-.258-.021 2.245 2.245 0 0 1-.258-.06v-.833a1.795 1.795 0 0 0 .506.078.73.73 0 0 0 .405-.101.635.635 0 0 0 .236-.324l.227-.615-1.958-5.471h.97l1.432 4.186 1.433-4.186zM207.406 8.698c0 4.309-3.487 6.719-7.787 6.719-4.301 0-7.788-2.41-7.788-6.72S195.318.895 199.62.895c4.3 0 7.787 3.493 7.787 7.804zm4.858 3.468l-10.997 8.43a1.996 1.996 0 0 1-2.827 0s-10.347-8.024-11.466-8.9c-1.503-1.26-2.843.255-2.843.255-.78.783-.78 2.05 0 2.834l13.839 13.867c.78.783 2.046.783 2.827 0l13.838-13.867a2.007 2.007 0 0 0 0-2.834s-1.293-.612-2.371.215z" fill="#553982"/><path d="M190.678 43.942a2.87 2.87 0 0 1-.862.639 2.26 2.26 0 0 1-.967.213c-.527 0-.939-.138-1.235-.414-.296-.275-.444-.657-.444-1.143 0-.47.146-.84.437-1.107.291-.268.734-.44 1.33-.518.15-.015.354-.038.612-.067.44-.046.71-.089.81-.13.1-.04.166-.09.198-.153s.048-.199.048-.408c0-.265-.096-.463-.29-.595-.192-.132-.484-.198-.873-.198-.402 0-.705.08-.909.242-.204.16-.306.4-.306.714h-.82v-.038c0-.522.183-.934.55-1.238.366-.302.871-.454 1.514-.454.692 0 1.2.13 1.527.39.327.259.49.664.49 1.215v2.592c0 .221.024.365.072.43.048.064.135.096.26.096a.7.7 0 0 0 .095-.007 2.17 2.17 0 0 0 .133-.021v.671a2.357 2.357 0 0 1-.278.06 1.549 1.549 0 0 1-.224.017c-.29 0-.507-.062-.652-.189-.144-.125-.216-.315-.216-.57v-.029zM190.595 42c-.231.126-.628.224-1.19.295-.2.026-.35.046-.45.063-.315.052-.542.145-.68.28-.138.136-.207.332-.207.59 0 .258.08.456.24.594.161.139.392.208.69.208.466 0 .85-.117 1.149-.352a1.1 1.1 0 0 0 .448-.904V42zm5.683-.822c-.026-.354-.154-.627-.383-.82-.23-.19-.545-.287-.944-.287-.47 0-.831.17-1.088.508-.255.338-.383.822-.383 1.45 0 .632.123 1.119.37 1.46.245.342.593.513 1.044.513.405 0 .729-.105.971-.314.243-.21.394-.515.451-.914h.83c-.045.635-.268 1.13-.67 1.486-.403.356-.943.535-1.62.535-.709 0-1.264-.244-1.668-.73-.403-.487-.606-1.154-.606-2.002 0-.867.212-1.546.633-2.038.421-.491 1-.737 1.736-.737.65 0 1.17.17 1.561.51.39.34.599.8.625 1.38h-.86zm5.186 0c-.026-.354-.154-.627-.383-.82-.23-.19-.545-.287-.943-.287-.47 0-.832.17-1.088.508-.256.338-.384.822-.384 1.45 0 .632.123 1.119.369 1.46.246.342.594.513 1.045.513.405 0 .729-.105.972-.314.242-.21.393-.515.45-.914h.83c-.045.635-.268 1.13-.67 1.486-.402.356-.943.535-1.62.535-.708 0-1.264-.244-1.668-.73-.403-.487-.605-1.154-.605-2.002 0-.867.21-1.546.632-2.038.421-.491 1-.737 1.737-.737.65 0 1.17.17 1.56.51.39.34.599.8.625 1.38h-.859zm1.756 3.457v-5.178h.84v.929c.138-.348.326-.609.562-.781.236-.172.526-.259.87-.259l.14.002a.556.556 0 0 1 .087.013v.918a.983.983 0 0 0-.077-.007 2.873 2.873 0 0 0-.13-.002c-.463 0-.817.126-1.06.38-.242.252-.363.62-.363 1.104v2.88h-.869zm6.76-1.673h.858c-.094.57-.342 1.02-.743 1.349-.403.328-.91.493-1.52.493-.717 0-1.283-.242-1.698-.725-.415-.484-.622-1.143-.622-1.977 0-.883.205-1.573.617-2.07.412-.496.98-.744 1.703-.744.743 0 1.318.229 1.725.686.406.458.61 1.104.61 1.939l-.002.237a1.575 1.575 0 0 1-.012.15h-3.73c.01.545.145.966.406 1.264.26.298.622.447 1.085.447.354 0 .645-.09.876-.273.23-.182.378-.44.446-.776zm-2.818-1.387h2.836c-.003-.484-.125-.857-.367-1.12-.24-.262-.583-.393-1.027-.393-.428 0-.765.129-1.01.386-.247.258-.39.634-.432 1.127zm9.257-4.06v7.12h-.84v-.652c-.222.27-.472.473-.752.608-.28.136-.589.204-.927.204-.688 0-1.237-.248-1.647-.742-.41-.496-.615-1.158-.615-1.99 0-.847.205-1.522.618-2.023.411-.501.96-.752 1.644-.752.36 0 .68.067.958.2.278.135.518.335.72.602v-2.576h.841zm-.81 4.495c0-.641-.13-1.125-.389-1.45-.259-.326-.643-.488-1.15-.488-.49 0-.867.177-1.134.533-.268.356-.4.862-.4 1.516 0 .59.136 1.054.412 1.392.274.338.652.508 1.131.508.486 0 .862-.174 1.129-.522.267-.349.4-.844.4-1.49zm2.166-4.496h.868v.991h-.868v-.99zm0 1.943h.868v5.177h-.868v-5.177zm3.212 3.873c0 .232.033.387.099.463.066.078.187.117.364.117a7.576 7.576 0 0 0 .468-.024v.74a6.56 6.56 0 0 1-.388.057c-.115.013-.216.02-.307.02-.408 0-.694-.08-.858-.238-.164-.157-.247-.437-.247-.84v-3.476h-.771v-.692h.771v-1.445h.87v1.445h.93v.692h-.93v3.18zm5.235-.368h.858c-.094.57-.341 1.02-.743 1.349-.402.328-.909.493-1.52.493-.716 0-1.282-.242-1.698-.725-.415-.484-.622-1.143-.622-1.977 0-.883.206-1.573.618-2.07.411-.496.98-.744 1.703-.744.743 0 1.317.229 1.724.686.407.458.61 1.104.61 1.939 0 .107 0 .186-.002.237a1.575 1.575 0 0 1-.012.15h-3.729c.01.545.145.966.405 1.264.261.298.622.447 1.086.447.354 0 .645-.09.875-.273.23-.182.38-.44.447-.776zm-2.818-1.387h2.837c-.003-.484-.126-.857-.367-1.12-.241-.262-.584-.393-1.028-.393-.427 0-.764.129-1.01.386-.246.258-.39.634-.432 1.127zm9.258-4.06v7.12h-.84v-.652c-.222.27-.472.473-.752.608-.28.136-.59.204-.927.204-.688 0-1.237-.248-1.647-.742-.41-.496-.615-1.158-.615-1.99 0-.847.206-1.522.618-2.023.411-.501.96-.752 1.644-.752.36 0 .68.067.958.2.278.135.518.335.721.602v-2.576h.84zm-.81 4.495c0-.641-.13-1.125-.389-1.45-.259-.326-.643-.488-1.15-.488-.49 0-.868.177-1.134.533-.267.356-.401.862-.401 1.516 0 .59.138 1.054.413 1.392.275.338.652.508 1.131.508.486 0 .862-.174 1.129-.522.267-.349.4-.844.4-1.49zm4.871 2.625v-5.178h.84v.929c.138-.348.326-.609.562-.781.236-.172.526-.259.87-.259l.14.002a.57.57 0 0 1 .087.013v.918a1.02 1.02 0 0 0-.077-.007 2.864 2.864 0 0 0-.13-.002c-.463 0-.817.126-1.06.38-.242.252-.363.62-.363 1.104v2.88h-.869zm6.76-1.673h.858c-.094.57-.342 1.02-.743 1.349-.403.328-.909.493-1.52.493-.717 0-1.283-.242-1.699-.725-.414-.484-.621-1.143-.621-1.977 0-.883.205-1.573.617-2.07.412-.496.98-.744 1.703-.744.743 0 1.318.229 1.725.686.406.458.61 1.104.61 1.939 0 .107-.001.186-.003.237a1.575 1.575 0 0 1-.011.15h-3.73c.01.545.145.966.405 1.264.261.298.623.447 1.086.447.354 0 .645-.09.876-.273.23-.182.379-.44.446-.776zm-2.818-1.387h2.836c-.003-.484-.125-.857-.367-1.12-.24-.262-.584-.393-1.027-.393-.428 0-.765.129-1.01.386-.247.258-.39.634-.432 1.127zM249.12 44c-.202.267-.44.468-.711.601a2.074 2.074 0 0 1-.929.201c-.698 0-1.26-.254-1.684-.761-.424-.508-.636-1.179-.636-2.014 0-.825.213-1.488.64-1.99.425-.5.989-.75 1.69-.75.34 0 .64.064.9.195.259.13.5.339.72.626v-.653h.85v5.066c0 .8-.19 1.377-.57 1.734-.379.356-.992.534-1.837.534-.685 0-1.22-.134-1.606-.401a1.28 1.28 0 0 1-.58-1.112v-.039h.85v.02c0 .267.112.467.34.601.226.134.568.201 1.024.201.547 0 .94-.105 1.18-.314.24-.21.36-.555.36-1.035V44zm-1.529-3.93c-.489 0-.865.17-1.13.512-.262.342-.394.83-.394 1.464 0 .623.135 1.107.405 1.454.27.346.646.52 1.129.52.527 0 .917-.16 1.17-.477.252-.318.379-.805.379-1.463 0-.663-.132-1.165-.394-1.503-.262-.338-.65-.508-1.165-.508zm3.696-2.558h.868v.991h-.868v-.99zm0 1.943h.868v5.177h-.868v-5.177zm1.842 3.495h.834c.033.352.159.618.38.798.22.18.532.271.938.271.373 0 .667-.073.882-.22a.69.69 0 0 0 .323-.602c0-.19-.053-.336-.161-.437-.108-.102-.317-.19-.63-.264l-.969-.251c-.547-.132-.927-.307-1.141-.525-.214-.217-.32-.528-.32-.93 0-.458.172-.821.518-1.09.345-.27.819-.404 1.42-.404.615 0 1.104.144 1.467.43.363.287.545.672.545 1.156v.018h-.844a.82.82 0 0 0-.335-.635c-.205-.15-.482-.224-.833-.224-.35 0-.616.06-.799.183a.608.608 0 0 0-.271.537c0 .167.056.298.17.394.115.094.328.177.64.249l.84.198c.597.142 1.01.323 1.234.544.225.22.338.536.338.945 0 .538-.19.956-.567 1.254-.378.298-.906.448-1.585.448-.662 0-1.171-.159-1.527-.475-.355-.315-.537-.771-.547-1.368zm6.271.378c0 .232.033.387.1.463.065.078.186.117.363.117a7.562 7.562 0 0 0 .468-.024v.74a6.607 6.607 0 0 1-.388.057 2.74 2.74 0 0 1-.306.02c-.409 0-.695-.08-.86-.238-.163-.157-.245-.437-.245-.84v-3.476h-.772v-.692h.772V38.01h.868v1.445h.931v.692h-.93v3.18zm5.235-.368h.858c-.093.57-.34 1.02-.742 1.349-.403.328-.91.493-1.52.493-.717 0-1.283-.242-1.698-.725-.415-.484-.622-1.143-.622-1.977 0-.883.205-1.573.617-2.07.412-.496.98-.744 1.703-.744.743 0 1.318.229 1.724.686.407.458.61 1.104.61 1.939 0 .107 0 .186-.002.237a1.44 1.44 0 0 1-.011.15h-3.73c.01.545.145.966.405 1.264.261.298.623.447 1.086.447.354 0 .645-.09.876-.273.23-.182.378-.44.446-.776zm-2.817-1.387h2.836c-.003-.484-.125-.857-.367-1.12-.241-.262-.583-.393-1.028-.393-.427 0-.764.129-1.01.386-.246.258-.39.634-.431 1.127zm4.741 3.06v-5.178h.84v.929c.138-.348.325-.609.562-.781.236-.172.526-.259.87-.259l.14.002a.556.556 0 0 1 .087.013v.918a.975.975 0 0 0-.078-.007 2.864 2.864 0 0 0-.13-.002c-.463 0-.816.126-1.059.38-.242.252-.364.62-.364 1.104v2.88h-.868z" fill="#FFF"/><path d="M272.172 2.806h.287V.846h.673V.604h-1.63v.242h.67v1.96zm3.116 0h.278l-.138-2.202h-.362l-.392 1.065c-.098.278-.177.52-.232.741h-.01a8.965 8.965 0 0 0-.222-.741l-.376-1.065h-.362l-.154 2.202h.271l.06-.944c.019-.33.035-.7.042-.974h.006c.062.262.15.546.255.856l.356 1.049h.216l.388-1.069c.111-.303.203-.578.278-.836h.01c-.004.275.016.644.032.95l.056.968z" fill="#553982"/><path d="M30.242 12.887v1.278h.544v.543h-1.087v-4.692h1.087v.544h-.544v1.277h3.983v-.503h.502v2.057h-.502v-.504h-3.983zm2.117-4.826h1.866v-.503h.502v2.055h-.502v-.502h-4.024v.502H29.7V7.558h.502v.503h1.656V6.032H30.2v.504h-.5V4.48h.502v.503h4.024V4.48h.502v2.056h-.502v-.504H32.36v2.029zM34.727.193v3.809h-.502v-.503h-4.024v.503H29.7V.353h1.005v.544H30.2V2.45h1.676V1.4h-.337V.897h1.176V1.4h-.337v1.05h1.805V.737h-.547V.193h1.09z" fill="#068A49"/><path d="M47.468 14.383L40.98 5.115v7.83h1.306v1.305h-4.403v-1.305h1.306V2.498h-1.306V1.193h3.168l6.493 9.325v-8.02H46.24V1.193h4.403v1.305h-1.306v11.885h-1.868zm7.9-5.277h4.16l-2.084-5.25-2.075 5.25zm-.535 1.359l-.98 2.48h1.31v1.305h-3.538v-1.305h.772l4.71-11.92h2.04l4.705 11.92h.77v1.305h-4.88v-1.305h1.31l-.983-2.48h-5.236zm14.443-7.86H65.96v1.411h-1.412V1.193h12.185v2.823H75.32V2.604h-3.317v10.34h1.306v1.306H67.97v-1.305h1.306V2.605zm12.534-.107v10.447h1.306v1.305h-5.339v-1.305h1.306V2.498h-1.306V1.193h5.34v1.305H81.81zm9.26 10.773c1.108 0 1.998-.508 2.667-1.522.669-1.015 1.003-2.358 1.003-4.028 0-1.677-.334-3.02-1.003-4.032-.669-1.011-1.559-1.517-2.668-1.517-1.103 0-1.989.506-2.658 1.517C87.742 4.7 87.41 6.044 87.41 7.72c0 1.676.333 3.02 1.002 4.032.669 1.011 1.555 1.518 2.658 1.518zm0 1.305c-2.03 0-3.63-.612-4.8-1.834-1.17-1.224-1.755-2.898-1.755-5.02 0-2.123.585-3.797 1.755-5.021 1.17-1.223 2.77-1.835 4.8-1.835 2.029 0 3.63.612 4.803 1.835 1.174 1.224 1.761 2.898 1.761 5.02 0 2.123-.587 3.797-1.76 5.02-1.174 1.223-2.775 1.835-4.805 1.835zm17.538-.193l-6.489-9.268v7.83h1.306v1.305h-4.401v-1.305h1.305V2.498h-1.305V1.193h3.166l6.494 9.325v-8.02h-1.306V1.193h4.403v1.305h-1.306v11.885h-1.867zm7.902-5.277h4.158l-2.085-5.25-2.073 5.25zm-.538 1.359l-.98 2.48h1.31v1.305h-3.538v-1.305h.773l4.71-11.92h2.04l4.705 11.92h.769v1.305h-4.88v-1.305h1.312l-.984-2.48h-5.237zm20.558 3.785h-9.935v-1.305h1.306V2.498h-1.306V1.193h5.34v1.305h-1.307v10.34h4.49v-1.42h1.412v2.832z" fill="#0A0A0F"/><path d="M40.951 30.848c-1.323.565-2.758.847-4.305.847-2.183 0-3.884-.604-5.104-1.814-1.22-1.207-1.83-2.894-1.83-5.06 0-2.175.594-3.86 1.785-5.05 1.193-1.19 2.878-1.787 5.06-1.787.671 0 1.362.047 2.074.141a20.34 20.34 0 0 1 2.205.424v2.735h-1.411l-.141-1.306a6.307 6.307 0 0 0-1.343-.515 5.4 5.4 0 0 0-1.353-.173c-1.24 0-2.214.491-2.922 1.473-.707.982-1.061 2.335-1.061 4.058 0 1.672.408 2.994 1.225 3.972.818.975 1.922 1.463 3.314 1.463 1.305 0 2.574-.319 3.807-.96v1.552zm7.67-.459c1.108 0 1.997-.508 2.665-1.522.669-1.014 1.004-2.357 1.004-4.027 0-1.677-.335-3.02-1.004-4.033-.668-1.011-1.557-1.517-2.666-1.517-1.103 0-1.99.506-2.658 1.517-.67 1.013-1.004 2.356-1.004 4.033 0 1.676.334 3.02 1.004 4.032.669 1.01 1.555 1.517 2.658 1.517zm0 1.306c-2.031 0-3.63-.612-4.8-1.835-1.171-1.224-1.757-2.897-1.757-5.02 0-2.123.586-3.797 1.756-5.02 1.17-1.224 2.77-1.836 4.8-1.836 2.028 0 3.63.612 4.804 1.835 1.174 1.224 1.76 2.898 1.76 5.02 0 2.124-.586 3.797-1.76 5.02-1.174 1.224-2.776 1.836-4.804 1.836zm9.037-12.078h-1.305V18.31h5.338v1.306h-1.305v6.837c0 1.376.224 2.377.673 3 .45.624 1.17.935 2.163.935.963 0 1.646-.303 2.048-.909.401-.606.603-1.63.603-3.07v-6.793h-1.306V18.31h4.58v1.306H67.84v6.555c0 1.124-.09 1.984-.269 2.58a4.138 4.138 0 0 1-.985 1.655c-.828.859-2.05 1.288-3.661 1.288-1.788 0-3.113-.432-3.975-1.298-.862-.863-1.293-2.193-1.293-3.987v-6.793zM79.741 31.5l-6.487-9.267v7.829h1.306v1.306h-4.402v-1.306h1.305V19.617h-1.305V18.31h3.166l6.494 9.325v-8.02h-1.306V18.31h4.402v1.306H81.61V31.5h-1.87zm4.66-.327V28.28h1.527v1.36c.435.263.846.464 1.23.6.387.135.746.202 1.082.202.653 0 1.18-.178 1.579-.533.4-.357.6-.823.6-1.399 0-.548-.127-.992-.38-1.332-.258-.336-.75-.704-1.473-1.103l-.873-.477c-1.183-.652-2.024-1.285-2.524-1.897a3.165 3.165 0 0 1-.75-2.073c0-1.07.388-1.946 1.164-2.624.777-.68 1.777-1.02 3-1.02a13.482 13.482 0 0 1 3.795.538v2.647h-1.526v-1.253a5.183 5.183 0 0 0-1.077-.516 3.26 3.26 0 0 0-1.015-.171c-.5 0-.925.176-1.274.53-.35.352-.526.781-.526 1.286 0 .412.127.765.38 1.059.253.3.729.65 1.43 1.05l.881.512c1.27.73 2.147 1.388 2.63 1.977.482.594.723 1.3.723 2.117 0 1.194-.444 2.149-1.332 2.862-.889.716-2.071 1.073-3.547 1.073a12.4 12.4 0 0 1-1.752-.133 19.783 19.783 0 0 1-1.971-.388zm19.778.195h-9.892v-1.306h1.306V19.617h-1.306V18.31h9.476v2.611h-1.41v-1.305H98.32v4.35h2.726v-.875h1.306v3.054h-1.306v-.874H98.32v4.685h4.447v-1.42h1.412v2.832zm11.134 0h-9.934v-1.306h1.306V19.617h-1.306V18.31h5.338v1.306h-1.306v10.34h4.491v-1.42h1.411v2.832zm10.973 0h-9.936v-1.306h1.306V19.617h-1.306V18.31h5.34v1.306h-1.306v10.34h4.49v-1.42h1.412v2.832zm5.069-11.752v10.446h1.305v1.306h-5.339v-1.306h1.306V19.617h-1.306V18.31h5.34v1.306h-1.306zm12.12 11.884l-6.487-9.267v7.829h1.306v1.306h-4.403v-1.306h1.306V19.617h-1.306V18.31h3.168l6.494 9.325v-8.02h-1.306V18.31h4.402v1.306h-1.306V31.5h-1.868zm14.766-.406c-1.795.4-3.27.6-4.43.6-2.059 0-3.691-.618-4.896-1.853-1.206-1.235-1.81-2.909-1.81-5.02 0-2.17.597-3.853 1.788-5.048 1.19-1.193 2.87-1.79 5.042-1.79.77 0 1.523.045 2.258.137.734.091 1.455.23 2.161.419v2.77h-1.482l-.106-1.305a6.966 6.966 0 0 0-1.423-.539 5.679 5.679 0 0 0-1.387-.176c-1.234 0-2.201.496-2.903 1.486-.702.992-1.053 2.358-1.053 4.1 0 1.704.39 3.047 1.172 4.026.78.979 1.852 1.47 3.215 1.47.375 0 .751-.068 1.127-.203v-3.397h-1.306v-1.306h5.012v1.306h-.98v4.323z" fill="#068A49"/><path d="M30.152 48.292V45.4h1.526v1.359c.436.264.846.464 1.23.6.386.135.747.202 1.082.202.652 0 1.179-.178 1.579-.533.4-.357.6-.822.6-1.398 0-.548-.127-.992-.38-1.333-.258-.335-.75-.703-1.472-1.103l-.874-.477c-1.182-.652-2.024-1.284-2.523-1.897a3.165 3.165 0 0 1-.751-2.072c0-1.071.388-1.947 1.164-2.625.777-.68 1.778-1.02 3-1.02a13.48 13.48 0 0 1 3.795.538v2.648h-1.527v-1.254a5.188 5.188 0 0 0-1.076-.516 3.272 3.272 0 0 0-1.015-.17c-.5 0-.925.175-1.275.528a1.76 1.76 0 0 0-.525 1.288c0 .412.126.765.38 1.058.252.301.729.65 1.43 1.05l.881.512c1.271.73 2.148 1.389 2.63 1.976.481.595.723 1.301.723 2.119 0 1.194-.444 2.148-1.332 2.862-.888.715-2.071 1.072-3.548 1.072-.545 0-1.13-.043-1.751-.132a19.875 19.875 0 0 1-1.97-.389zm16.61-.785c1.109 0 1.997-.507 2.666-1.522.669-1.014 1.004-2.357 1.004-4.027 0-1.677-.335-3.02-1.004-4.032s-1.557-1.518-2.666-1.518c-1.104 0-1.99.506-2.658 1.518-.67 1.012-1.004 2.355-1.004 4.032 0 1.676.334 3.02 1.004 4.032.668 1.011 1.554 1.517 2.658 1.517zm0 1.306c-2.03 0-3.63-.612-4.8-1.835-1.17-1.223-1.756-2.897-1.756-5.02 0-2.123.585-3.796 1.756-5.02 1.17-1.223 2.77-1.835 4.8-1.835 2.028 0 3.629.612 4.803 1.835 1.174 1.224 1.761 2.897 1.761 5.02 0 2.123-.587 3.797-1.761 5.02-1.174 1.223-2.775 1.835-4.803 1.835zm19.362-.847c-1.325.565-2.76.847-4.306.847-2.183 0-3.884-.604-5.104-1.813-1.22-1.208-1.831-2.895-1.831-5.06 0-2.175.596-3.86 1.786-5.05 1.192-1.191 2.878-1.787 5.06-1.787.67 0 1.362.047 2.074.14.711.095 1.447.236 2.206.424v2.735h-1.412l-.141-1.306a6.335 6.335 0 0 0-1.344-.515 5.432 5.432 0 0 0-1.352-.173c-1.24 0-2.213.491-2.921 1.473-.707.983-1.063 2.336-1.063 4.059 0 1.672.409 2.994 1.226 3.971.816.976 1.92 1.464 3.314 1.464 1.305 0 2.574-.32 3.808-.962v1.553zm5.563-11.231v10.446h1.306v1.307h-5.338V47.18h1.306V36.735h-1.306v-1.306h5.338v1.306h-1.306zm12.426 11.753h-9.89V47.18h1.306V36.735h-1.306v-1.306h9.476v2.612h-1.412v-1.306h-4.032v4.35h2.726v-.874h1.306v3.053h-1.306v-.874h-2.726v4.685h4.446v-1.42h1.412v2.833zm5.66-11.647h-3.317v1.412h-1.412v-2.824h12.185v2.824h-1.412V36.84H92.5v10.34h1.306v1.307h-5.339V47.18h1.306V36.84zm12.649 5.981l-3.684-6.087h-.771v-1.306h4.886v1.306h-1.085l2.776 4.534 2.738-4.534h-1.076v-1.306h3.389v1.306h-.763l-3.685 6.087v4.36h1.306v1.306h-5.337V47.18h1.306v-4.359z" fill="#0A0A0F"/><path d="M24.222 7.632V.282C10.846.281 0 11.124 0 24.498c0 13.377 10.846 24.22 24.222 24.22v-7.353c-9.323-.55-16.736-7.894-16.736-16.867 0-8.972 7.413-16.316 16.736-16.867z" fill="#068A49"/><path d="M15.094 24.499c0 4.791 4.002 8.747 9.128 9.254V15.245c-5.126.507-9.128 4.463-9.128 9.254" fill="#0A0A0F"/></g></svg>