<svg width="304" height="49" viewBox="0 0 304 49" xmlns="http://www.w3.org/2000/svg"><title>nhs-logo-dual</title><g fill="none" fill-rule="evenodd"><path d="M303.02 41.435v-3.679c0-2.053-1.649-3.717-3.683-3.717h-95.179c-2.034 0-3.682 1.664-3.682 3.717v7.359c0 2.052 1.649 3.716 3.682 3.716h95.18c2.033 0 3.682-1.664 3.682-3.716v-3.68zm-60.693-31.252V2.937h.848v.73a2.15 2.15 0 0 1 .726-.681c.27-.146.588-.218.958-.218.688 0 1.238.248 1.648.744.41.497.615 1.162.615 1.997 0 .844-.208 1.516-.622 2.016-.415.5-.965.75-1.65.75-.364 0-.683-.066-.958-.197a1.944 1.944 0 0 1-.717-.597v2.702h-.848zm.82-4.621c0 .645.128 1.13.383 1.453.256.323.64.486 1.151.486.489 0 .866-.178 1.131-.534.266-.357.398-.862.398-1.516 0-.59-.137-1.054-.412-1.392-.275-.339-.65-.508-1.127-.508-.489 0-.865.174-1.128.522-.264.348-.396.845-.396 1.489zm5.032 2.553V2.937h.839v.928c.138-.348.326-.608.562-.78.236-.173.527-.26.87-.26.065 0 .112.002.14.004a.517.517 0 0 1 .088.012v.918a1.02 1.02 0 0 0-.078-.007 2.873 2.873 0 0 0-.13-.003c-.463 0-.816.127-1.06.38-.242.253-.363.621-.363 1.104v2.882h-.868zm3.015-2.597c0-.866.216-1.541.649-2.025.432-.484 1.039-.725 1.82-.725.785 0 1.395.24 1.829.723.434.481.65 1.158.65 2.027 0 .87-.215 1.548-.648 2.03-.432.485-1.04.726-1.821.726-.785 0-1.394-.24-1.828-.723-.434-.481-.651-1.159-.651-2.033zm.887 0c0 .642.137 1.133.413 1.472.274.34.668.51 1.179.51.508 0 .897-.17 1.168-.51.27-.34.404-.83.404-1.472 0-.638-.134-1.127-.404-1.467-.271-.34-.66-.51-1.168-.51-.514 0-.909.17-1.182.508-.273.338-.41.828-.41 1.47zm5.306 2.597V3.629h-.849v-.692h.849v-.764c0-.429.098-.75.293-.964.194-.214.485-.321.875-.321.06 0 .138.004.231.014.094.01.23.027.41.053v.783a6.01 6.01 0 0 0-.233-.036 1.305 1.305 0 0 0-.153-.012c-.203 0-.344.056-.424.17-.08.112-.12.326-.12.642v.435h.93v.692h-.93v4.486h-.88zm5.9-1.673h.859c-.094.57-.341 1.02-.743 1.349-.402.328-.909.493-1.52.493-.716 0-1.283-.242-1.698-.725-.415-.484-.622-1.143-.622-1.978 0-.883.205-1.572.617-2.068.412-.497.98-.745 1.703-.745.744 0 1.318.229 1.725.686.406.458.61 1.104.61 1.939 0 .106 0 .186-.002.237a1.43 1.43 0 0 1-.012.15h-3.73c.01.544.145.966.406 1.264.26.298.622.447 1.085.447.354 0 .646-.09.876-.273.23-.182.379-.441.447-.776zm-2.817-1.388h2.837c-.003-.483-.126-.856-.368-1.119-.24-.262-.583-.393-1.027-.393-.427 0-.765.129-1.01.386-.247.258-.39.633-.432 1.126zm4.39 1.378h.834c.033.352.159.617.38.798.22.18.532.27.938.27.373 0 .667-.073.882-.22a.69.69 0 0 0 .324-.601c0-.19-.055-.336-.162-.438-.108-.101-.318-.19-.63-.263l-.97-.251c-.546-.133-.927-.308-1.14-.525-.214-.218-.32-.527-.32-.93 0-.458.172-.822.518-1.09.345-.27.82-.405 1.42-.405.614 0 1.104.144 1.467.43.363.288.545.673.545 1.156v.02h-.844a.82.82 0 0 0-.336-.637c-.204-.15-.481-.224-.832-.224-.35 0-.616.062-.798.184a.606.606 0 0 0-.272.536c0 .168.057.299.17.394.115.096.328.178.64.25l.839.198c.598.141 1.01.322 1.235.543.226.221.338.536.338.945 0 .54-.189.957-.568 1.255-.377.298-.905.447-1.584.447-.662 0-1.171-.158-1.527-.474-.355-.316-.537-.771-.547-1.368zm4.901 0h.835c.032.352.158.617.379.798.22.18.532.27.938.27.373 0 .667-.073.882-.22a.69.69 0 0 0 .324-.601c0-.19-.055-.336-.162-.438-.108-.101-.317-.19-.63-.263l-.97-.251c-.546-.133-.926-.308-1.14-.525-.214-.218-.32-.527-.32-.93 0-.458.172-.822.518-1.09.346-.27.82-.405 1.42-.405.615 0 1.104.144 1.467.43.363.288.545.673.545 1.156v.02h-.844a.819.819 0 0 0-.335-.637c-.205-.15-.482-.224-.832-.224s-.617.062-.8.184a.607.607 0 0 0-.271.536c0 .168.057.299.17.394.115.096.328.178.64.25l.839.198c.599.141 1.01.322 1.235.543.226.221.338.536.338.945 0 .54-.189.957-.567 1.255-.378.298-.906.447-1.584.447-.663 0-1.172-.158-1.527-.474-.356-.316-.538-.771-.548-1.368zm5.253-5.438h.869v.99h-.869v-.99zm0 1.943h.869v5.178h-.869V2.937zm1.93 2.581c0-.866.217-1.541.65-2.025.432-.484 1.039-.725 1.82-.725.785 0 1.395.24 1.829.723.434.481.651 1.158.651 2.027 0 .87-.216 1.548-.649 2.03-.432.485-1.04.726-1.821.726-.785 0-1.394-.24-1.828-.723-.435-.481-.652-1.159-.652-2.033zm.888 0c0 .642.138 1.133.412 1.472.276.34.669.51 1.18.51.509 0 .897-.17 1.168-.51.27-.34.404-.83.404-1.472 0-.638-.134-1.127-.404-1.467-.27-.34-.66-.51-1.168-.51-.514 0-.909.17-1.182.508-.273.338-.41.828-.41 1.47zm8.558 2.597V4.929c0-.51-.078-.861-.234-1.056-.156-.196-.424-.293-.803-.293-.486 0-.863.138-1.131.413-.27.276-.404.667-.404 1.173v2.949h-.868V2.937h.83v.754c.2-.3.436-.522.71-.667.272-.145.59-.218.95-.218.388 0 .717.06.983.177a1.33 1.33 0 0 1 .791.972c.036.169.054.437.054.805v3.355h-.878zm5.374-.692c-.27.284-.557.497-.861.638a2.26 2.26 0 0 1-.967.213c-.528 0-.94-.138-1.235-.413-.296-.276-.444-.657-.444-1.144 0-.47.146-.84.436-1.107.292-.267.734-.44 1.33-.517l.612-.068c.44-.044.711-.088.81-.13.1-.039.166-.09.198-.152.033-.063.049-.2.049-.41 0-.263-.096-.461-.29-.593-.193-.133-.484-.198-.873-.198-.402 0-.705.08-.91.241-.203.161-.306.4-.306.716h-.82V4.46c0-.522.184-.935.55-1.237.366-.304.872-.455 1.514-.455.692 0 1.201.13 1.528.389.326.26.49.665.49 1.216v2.591c0 .223.023.366.072.43.048.065.135.097.26.097a.792.792 0 0 0 .094-.007c.038-.005.082-.012.133-.022v.672a2.357 2.357 0 0 1-.277.06 1.552 1.552 0 0 1-.224.017c-.29 0-.507-.062-.652-.188-.144-.126-.217-.316-.217-.57v-.03zm-.082-1.943c-.232.126-.629.224-1.191.295-.2.025-.35.047-.449.063-.316.051-.542.145-.68.28-.139.135-.208.332-.208.59 0 .258.08.456.241.595.161.138.391.207.69.207.466 0 .85-.118 1.148-.353.3-.235.449-.536.449-.904V5.48zm2.262-4.486h.883v7.12h-.883V.994zm-51.988 15.482h.834c.032.351.158.617.379.798.22.18.533.27.938.27.373 0 .667-.073.882-.22a.69.69 0 0 0 .324-.601c0-.19-.054-.336-.162-.438-.108-.102-.317-.189-.63-.264l-.969-.25c-.546-.133-.927-.308-1.14-.525-.215-.218-.321-.528-.321-.931 0-.457.172-.82.518-1.09.346-.269.82-.403 1.42-.403.615 0 1.104.143 1.467.43.363.287.545.672.545 1.155v.02h-.844a.819.819 0 0 0-.335-.636c-.204-.15-.482-.225-.832-.225s-.617.061-.8.184a.607.607 0 0 0-.27.536c0 .168.056.3.17.394.114.095.327.178.64.25l.838.198c.599.141 1.01.323 1.235.543.226.221.338.536.338.945 0 .539-.189.957-.567 1.255-.378.298-.906.447-1.584.447-.663 0-1.172-.158-1.527-.474-.355-.315-.538-.772-.547-1.368zm6.27.377c0 .232.034.387.1.464.065.078.187.116.364.116a4.531 4.531 0 0 0 .468-.024v.74a6.27 6.27 0 0 1-.389.058 2.74 2.74 0 0 1-.306.02c-.409 0-.695-.08-.859-.238-.163-.158-.246-.438-.246-.84v-3.477h-.772v-.691h.772v-1.445h.868v1.445h.932v.691h-.932v3.181zm4.95.614c-.27.284-.557.497-.861.638a2.26 2.26 0 0 1-.967.213c-.527 0-.939-.138-1.235-.413-.296-.276-.444-.657-.444-1.144 0-.47.146-.84.437-1.107.29-.267.733-.44 1.33-.517l.611-.068c.441-.044.71-.088.81-.13.1-.039.166-.09.198-.152.033-.063.049-.2.049-.409 0-.264-.096-.462-.29-.594-.193-.132-.484-.198-.873-.198-.402 0-.705.08-.909.241-.204.162-.307.4-.307.715h-.82v-.038c0-.522.184-.935.55-1.238.367-.303.872-.454 1.515-.454.691 0 1.2.13 1.527.389.327.26.49.665.49 1.216v2.591c0 .222.023.366.072.43.048.065.135.097.26.097a.7.7 0 0 0 .094-.007c.038-.005.082-.012.133-.022v.672a2.357 2.357 0 0 1-.277.06 1.549 1.549 0 0 1-.224.017c-.29 0-.507-.063-.652-.189-.144-.125-.217-.315-.217-.57v-.029zm-.082-1.943c-.231.125-.629.224-1.191.295-.2.026-.349.046-.448.062-.316.052-.543.145-.68.28-.14.137-.208.333-.208.59 0 .259.08.457.24.595.161.139.392.208.69.208.467 0 .85-.118 1.148-.353a1.1 1.1 0 0 0 .449-.903v-.774zm5.692 2.635v-3.186c0-.51-.077-.861-.233-1.056-.156-.195-.424-.293-.804-.293-.485 0-.862.138-1.13.413-.27.276-.404.666-.404 1.172v2.95h-.868V12.98h.83v.754c.2-.3.435-.522.708-.667.274-.145.591-.217.951-.217.39 0 .717.058.984.176a1.332 1.332 0 0 1 .79.972c.037.17.054.437.054.804v3.356h-.878zm6.697-7.121v7.12h-.84v-.652c-.222.27-.473.474-.752.609-.28.136-.59.203-.927.203-.688 0-1.237-.247-1.648-.742-.409-.495-.614-1.158-.614-1.99 0-.847.206-1.521.618-2.022.411-.502.96-.752 1.644-.752.36 0 .68.067.958.2.278.134.518.335.72.602v-2.576h.84zm-.81 4.495c0-.64-.13-1.124-.39-1.45-.258-.325-.642-.488-1.15-.488-.489 0-.867.178-1.134.534-.266.356-.4.862-.4 1.516 0 .59.137 1.054.413 1.392.275.338.652.508 1.13.508.486 0 .863-.174 1.13-.522.266-.349.4-.845.4-1.49zm5.358 1.934c-.27.284-.557.497-.861.638a2.26 2.26 0 0 1-.967.213c-.528 0-.94-.138-1.235-.413-.296-.276-.444-.657-.444-1.144 0-.47.145-.84.436-1.107.292-.267.735-.44 1.33-.517l.613-.068c.44-.044.71-.088.81-.13.1-.039.166-.09.198-.152.032-.063.048-.2.048-.409 0-.264-.096-.462-.29-.594-.193-.132-.484-.198-.873-.198-.402 0-.705.08-.91.241-.203.162-.306.4-.306.715h-.82v-.038c0-.522.184-.935.55-1.238.367-.303.872-.454 1.515-.454.691 0 1.2.13 1.527.389.326.26.49.665.49 1.216v2.591c0 .222.023.366.072.43.048.065.135.097.26.097a.693.693 0 0 0 .094-.007c.037-.005.082-.012.133-.022v.672a2.357 2.357 0 0 1-.277.06 1.544 1.544 0 0 1-.224.017c-.29 0-.507-.063-.652-.189-.144-.125-.217-.315-.217-.57v-.029zm-.082-1.943c-.232.125-.628.224-1.191.295-.2.026-.35.046-.449.062-.315.052-.542.145-.68.28-.139.137-.208.333-.208.59 0 .259.08.457.241.595.161.139.392.208.69.208.466 0 .85-.118 1.148-.353a1.1 1.1 0 0 0 .449-.903v-.774zm2.254 2.635V12.98h.838v.928c.139-.348.327-.608.563-.78.236-.173.526-.26.87-.26.065 0 .111.002.14.003a.556.556 0 0 1 .087.013v.918a.983.983 0 0 0-.077-.007 2.888 2.888 0 0 0-.13-.003c-.463 0-.816.127-1.06.38-.242.253-.363.62-.363 1.104v2.882h-.868zm7.796-7.121v7.12h-.84v-.652c-.222.27-.473.474-.752.609-.28.136-.59.203-.927.203-.688 0-1.238-.247-1.648-.742-.41-.495-.614-1.158-.614-1.99 0-.847.205-1.521.617-2.022.412-.502.96-.752 1.645-.752.36 0 .68.067.957.2.28.134.519.335.722.602v-2.576h.84zm-.811 4.495c0-.64-.13-1.124-.388-1.45-.26-.325-.643-.488-1.151-.488-.489 0-.867.178-1.134.534-.267.356-.4.862-.4 1.516 0 .59.137 1.054.413 1.392.274.338.652.508 1.13.508.486 0 .863-.174 1.13-.522.266-.349.4-.845.4-1.49zm1.814.943h.834c.032.351.158.617.379.798.22.18.533.27.938.27.373 0 .667-.073.882-.22a.69.69 0 0 0 .324-.601c0-.19-.055-.336-.162-.438-.108-.102-.317-.189-.63-.264l-.969-.25c-.546-.133-.927-.308-1.14-.525-.215-.218-.321-.528-.321-.931 0-.457.172-.82.518-1.09.346-.269.82-.403 1.42-.403.615 0 1.104.143 1.467.43.363.287.545.672.545 1.155v.02h-.844a.819.819 0 0 0-.335-.636c-.204-.15-.482-.225-.832-.225s-.617.061-.8.184a.608.608 0 0 0-.271.536c0 .168.057.3.171.394.114.095.327.178.64.25l.838.198c.599.141 1.01.323 1.235.543.226.221.338.536.338.945 0 .539-.189.957-.567 1.255-.378.298-.906.447-1.584.447-.663 0-1.172-.158-1.527-.474-.355-.315-.538-.772-.547-1.368zm-35.501 11.035c-.27.283-.557.496-.861.638a2.265 2.265 0 0 1-.967.213c-.528 0-.94-.138-1.235-.414-.296-.275-.444-.656-.444-1.143 0-.47.145-.84.436-1.107.292-.268.735-.44 1.33-.517l.612-.068c.44-.045.71-.088.81-.13.1-.04.167-.09.199-.153.031-.063.047-.199.047-.409 0-.264-.096-.462-.289-.594-.193-.132-.484-.198-.873-.198-.402 0-.705.08-.91.242-.203.16-.306.4-.306.715h-.82v-.038c0-.523.184-.935.55-1.238.367-.303.872-.454 1.515-.454.691 0 1.2.13 1.527.389.326.26.49.664.49 1.215v2.592c0 .222.023.366.072.43.048.064.135.096.26.096a.69.69 0 0 0 .094-.007c.037-.004.082-.012.133-.021v.672a2.455 2.455 0 0 1-.278.06 1.617 1.617 0 0 1-.223.017c-.29 0-.507-.063-.652-.189-.144-.125-.217-.316-.217-.57v-.029zm-.082-1.943c-.232.126-.629.224-1.191.294-.2.026-.35.047-.45.063-.314.052-.54.145-.68.28-.138.136-.207.332-.207.59 0 .258.08.456.241.595.161.138.391.208.69.208.466 0 .85-.118 1.148-.354.3-.235.449-.535.449-.903v-.773zm3.111-2.543v3.176c0 .509.08.863.24 1.06.158.2.428.298.808.298.501 0 .88-.147 1.138-.442.257-.295.386-.73.386-1.303v-2.789h.868v5.177h-.83v-.773c-.18.3-.413.525-.7.677a2.13 2.13 0 0 1-1.008.227 2.24 2.24 0 0 1-.94-.184 1.38 1.38 0 0 1-.612-.522 1.294 1.294 0 0 1-.174-.443c-.036-.168-.053-.437-.053-.804v-3.355h.877zm5.78 3.872c0 .231.033.387.099.463.066.078.187.116.364.116a4.166 4.166 0 0 0 .468-.024v.74a6.21 6.21 0 0 1-.388.058c-.115.013-.216.02-.307.02-.408 0-.694-.08-.859-.237-.163-.158-.246-.438-.246-.842v-3.475h-.771v-.691h.771v-1.446h.869v1.446h.93v.691h-.93v3.18zm5.195 1.305v-3.186c0-.512-.078-.865-.233-1.058-.157-.194-.425-.29-.804-.29-.47 0-.843.133-1.12.398-.276.266-.415.625-.415 1.076v3.06h-.868v-7.12h.868v2.673c.159-.28.375-.494.652-.64.277-.148.6-.22.97-.22.389 0 .717.058.984.176a1.329 1.329 0 0 1 .79.971c.036.17.054.438.054.805v3.355h-.878zm1.915-2.596c0-.867.217-1.542.65-2.025.432-.484 1.039-.725 1.82-.725.785 0 1.395.24 1.829.722.434.482.651 1.158.651 2.028 0 .87-.216 1.547-.649 2.03-.432.484-1.04.726-1.821.726-.785 0-1.394-.24-1.828-.724-.435-.481-.652-1.158-.652-2.032zm.888 0c0 .642.138 1.132.412 1.472.275.34.669.51 1.18.51.508 0 .897-.17 1.168-.51.27-.34.404-.83.404-1.472 0-.638-.134-1.127-.404-1.467-.27-.34-.66-.51-1.168-.51-.514 0-.909.169-1.182.508-.273.338-.41.827-.41 1.47zm5.119 2.596v-5.177h.839v.928c.138-.348.326-.608.563-.78.236-.173.526-.26.87-.26.064 0 .11.001.14.003a.65.65 0 0 1 .087.012v.919a.975.975 0 0 0-.078-.008 2.864 2.864 0 0 0-.13-.002c-.463 0-.816.127-1.059.379-.243.253-.364.621-.364 1.105v2.881h-.868zm3.28-7.12h.868v.99h-.868v-.99zm0 1.943h.868v5.177h-.868v-5.177zm3.213 3.872c0 .231.033.387.099.463.066.078.187.116.364.116a4.161 4.161 0 0 0 .468-.024v.74a6.21 6.21 0 0 1-.388.058c-.115.013-.217.02-.307.02-.408 0-.695-.08-.859-.237-.164-.158-.246-.438-.246-.842v-3.475h-.772v-.691h.772v-1.446h.869v1.446h.931v.691h-.931v3.18zm5.026-3.872h.97l-2.176 5.98c-.206.564-.413.933-.622 1.107-.209.173-.511.26-.907.26a1.56 1.56 0 0 1-.258-.021 2.245 2.245 0 0 1-.258-.06v-.832a1.795 1.795 0 0 0 .506.077.73.73 0 0 0 .406-.1.635.635 0 0 0 .236-.325l.227-.614-1.959-5.472h.97l1.432 4.186 1.433-4.186zM231.703 8.698c0 4.31-3.487 6.719-7.787 6.719-4.301 0-7.788-2.41-7.788-6.72s3.487-7.803 7.788-7.803c4.3 0 7.787 3.493 7.787 7.804zm4.858 3.468l-10.997 8.43a1.996 1.996 0 0 1-2.827 0s-10.347-8.024-11.466-8.9c-1.503-1.26-2.843.256-2.843.256-.78.783-.78 2.05 0 2.833l13.839 13.867c.78.783 2.046.783 2.827 0l13.838-13.867a2.006 2.006 0 0 0 0-2.833s-1.293-.613-2.37.214z" fill="#553982"/><path d="M214.975 43.943a2.87 2.87 0 0 1-.862.638 2.26 2.26 0 0 1-.967.213c-.527 0-.939-.138-1.235-.413-.296-.276-.444-.657-.444-1.144 0-.47.146-.84.437-1.107.291-.268.734-.44 1.33-.518.15-.015.354-.038.611-.067.441-.045.711-.089.81-.13.1-.04.167-.09.199-.153.032-.062.048-.199.048-.408 0-.264-.096-.463-.29-.594-.192-.133-.484-.199-.873-.199-.402 0-.705.08-.909.242-.204.161-.306.4-.306.715h-.82v-.038c0-.523.183-.935.55-1.238.366-.303.871-.455 1.514-.455.692 0 1.2.13 1.527.39.327.259.49.664.49 1.215v2.592c0 .222.024.365.072.43.048.065.135.096.26.096a.7.7 0 0 0 .095-.007 2.17 2.17 0 0 0 .132-.021v.671a2.357 2.357 0 0 1-.277.06 1.549 1.549 0 0 1-.224.017c-.29 0-.507-.062-.652-.188-.144-.126-.216-.315-.216-.57v-.03zm-.083-1.944c-.231.126-.628.224-1.19.295-.2.026-.35.047-.45.063-.315.052-.542.145-.68.28-.138.136-.208.333-.208.59 0 .258.081.457.242.595.16.138.39.208.69.208.465 0 .849-.118 1.148-.353a1.1 1.1 0 0 0 .448-.904v-.774zm5.683-.822c-.026-.354-.154-.627-.383-.819-.23-.191-.545-.288-.944-.288-.47 0-.831.17-1.088.509-.255.337-.383.82-.383 1.45 0 .631.123 1.118.37 1.46.245.34.593.512 1.044.512.404 0 .729-.105.971-.314.243-.21.394-.515.451-.914h.83c-.045.635-.268 1.13-.67 1.486-.403.357-.943.535-1.62.535-.709 0-1.264-.244-1.668-.73-.403-.487-.606-1.154-.606-2.001 0-.868.212-1.547.633-2.039.421-.49 1-.737 1.736-.737.65 0 1.17.17 1.561.51.39.34.599.8.625 1.38h-.86zm5.186 0c-.026-.354-.154-.627-.383-.819-.23-.191-.545-.288-.943-.288-.47 0-.832.17-1.088.509-.256.337-.384.82-.384 1.45 0 .631.123 1.118.369 1.46.246.34.594.512 1.045.512.405 0 .729-.105.972-.314.242-.21.393-.515.45-.914h.83c-.045.635-.268 1.13-.67 1.486-.402.357-.943.535-1.62.535-.708 0-1.264-.244-1.668-.73-.403-.487-.605-1.154-.605-2.001 0-.868.21-1.547.632-2.039.421-.49 1-.737 1.737-.737.65 0 1.17.17 1.56.51.39.34.599.8.625 1.38h-.859zm1.756 3.457v-5.177h.84v.928c.138-.348.326-.608.562-.781.236-.172.526-.259.87-.259.065 0 .112.001.14.003a.556.556 0 0 1 .087.012v.918a.983.983 0 0 0-.077-.007 2.873 2.873 0 0 0-.13-.002c-.463 0-.817.126-1.06.38-.242.253-.363.62-.363 1.104v2.881h-.869zm6.76-1.672h.858c-.094.57-.342 1.02-.743 1.348-.402.329-.91.493-1.52.493-.717 0-1.283-.242-1.698-.725-.415-.483-.622-1.142-.622-1.977 0-.883.205-1.573.617-2.07.412-.496.98-.744 1.703-.744.743 0 1.318.23 1.725.687.406.458.61 1.104.61 1.938l-.002.237a1.575 1.575 0 0 1-.012.15h-3.73c.01.545.145.966.406 1.264.26.298.622.447 1.085.447.354 0 .646-.09.876-.273.23-.182.378-.44.446-.775zm-2.818-1.388h2.836c-.003-.484-.125-.857-.367-1.12-.24-.262-.583-.393-1.027-.393-.428 0-.765.13-1.01.386-.247.259-.39.634-.432 1.127zm9.257-4.06v7.12h-.84v-.652c-.222.27-.472.473-.752.608-.28.136-.589.204-.927.204-.688 0-1.237-.248-1.647-.742-.41-.495-.615-1.158-.615-1.99 0-.847.205-1.522.618-2.023.411-.5.96-.752 1.644-.752.361 0 .68.067.958.201.278.134.518.335.721.602v-2.576h.84zm-.81 4.495c0-.64-.13-1.125-.389-1.45-.259-.326-.642-.488-1.15-.488-.49 0-.867.178-1.134.533-.268.357-.4.862-.4 1.516 0 .59.137 1.054.412 1.392.274.339.652.508 1.131.508.486 0 .862-.174 1.129-.522.267-.348.4-.844.4-1.49zm2.166-4.495h.868v.99h-.868v-.99zm0 1.943h.868v5.177h-.868v-5.177zm3.212 3.872c0 .232.033.387.099.464.066.077.187.116.364.116a4.531 4.531 0 0 0 .468-.024v.74a6.56 6.56 0 0 1-.388.057c-.115.013-.216.02-.307.02-.408 0-.694-.08-.858-.237-.164-.158-.246-.438-.246-.841v-3.476h-.772v-.691h.772V38.01h.868v1.446h.931v.691h-.93v3.181zm5.235-.367h.858c-.093.57-.341 1.02-.742 1.348-.403.329-.91.493-1.52.493-.717 0-1.283-.242-1.699-.725-.415-.483-.621-1.142-.621-1.977 0-.883.205-1.573.617-2.07.412-.496.98-.744 1.703-.744.743 0 1.317.23 1.724.687.407.458.61 1.104.61 1.938 0 .107 0 .186-.002.237a1.575 1.575 0 0 1-.012.15h-3.729c.01.545.145.966.405 1.264.261.298.623.447 1.086.447.354 0 .645-.09.875-.273.23-.182.38-.44.447-.775zm-2.818-1.388h2.837c-.003-.484-.125-.857-.367-1.12-.241-.262-.584-.393-1.028-.393-.427 0-.764.13-1.01.386-.246.259-.39.634-.432 1.127zm9.258-4.06v7.12h-.84v-.652c-.221.27-.472.473-.752.608-.28.136-.589.204-.927.204-.688 0-1.237-.248-1.647-.742-.41-.495-.615-1.158-.615-1.99 0-.847.206-1.522.618-2.023.412-.5.96-.752 1.644-.752.361 0 .68.067.958.201.279.134.518.335.721.602v-2.576h.84zm-.81 4.495c0-.64-.13-1.125-.389-1.45-.259-.326-.642-.488-1.15-.488-.49 0-.867.178-1.134.533-.267.357-.4.862-.4 1.516 0 .59.137 1.054.412 1.392.275.339.652.508 1.131.508.486 0 .862-.174 1.129-.522.267-.348.4-.844.4-1.49zm4.872 2.625v-5.177h.839v.928c.138-.348.326-.608.562-.781.237-.172.527-.259.87-.259.065 0 .112.001.14.003a.57.57 0 0 1 .088.012v.918a1.02 1.02 0 0 0-.078-.007 2.864 2.864 0 0 0-.13-.002c-.463 0-.816.126-1.059.38-.243.253-.364.62-.364 1.104v2.881h-.868zm6.758-1.672h.859c-.094.57-.341 1.02-.743 1.348-.402.329-.909.493-1.52.493-.717 0-1.283-.242-1.698-.725-.415-.483-.622-1.142-.622-1.977 0-.883.206-1.573.618-2.07.411-.496.979-.744 1.702-.744.743 0 1.318.23 1.725.687.407.458.61 1.104.61 1.938 0 .107 0 .186-.002.237a1.575 1.575 0 0 1-.012.15h-3.729c.01.545.144.966.405 1.264.26.298.622.447 1.085.447.354 0 .646-.09.876-.273.23-.182.379-.44.446-.775zm-2.817-1.388h2.837c-.004-.484-.126-.857-.367-1.12-.242-.262-.584-.393-1.028-.393-.427 0-.764.13-1.01.386-.246.259-.39.634-.432 1.127zM273.419 44c-.203.268-.44.468-.712.601a2.074 2.074 0 0 1-.928.202c-.699 0-1.26-.255-1.684-.762-.424-.508-.637-1.178-.637-2.014 0-.824.213-1.488.64-1.989.426-.501.989-.752 1.69-.752.34 0 .641.066.9.196s.5.34.721.626v-.652h.849v5.066c0 .799-.19 1.377-.569 1.733-.38.356-.993.534-1.838.534-.685 0-1.22-.134-1.606-.401a1.28 1.28 0 0 1-.58-1.112v-.038h.85v.018c0 .268.112.469.34.603.226.134.568.2 1.025.2.546 0 .94-.105 1.179-.314.24-.21.36-.555.36-1.035V44zm-1.53-3.93c-.488 0-.865.17-1.129.512-.263.342-.395.83-.395 1.465 0 .622.135 1.106.405 1.453.27.346.647.52 1.129.52.527 0 .917-.16 1.17-.477.252-.318.379-.805.379-1.462 0-.664-.132-1.166-.393-1.503-.263-.34-.65-.509-1.166-.509zm3.696-2.557h.868v.99h-.868v-.99zm0 1.943h.868v5.177h-.868v-5.177zm1.843 3.495h.834c.032.351.158.617.379.797.22.18.533.272.938.272.373 0 .668-.074.882-.221a.69.69 0 0 0 .324-.602c0-.19-.054-.336-.162-.437-.107-.102-.317-.19-.63-.264l-.969-.251c-.546-.132-.927-.307-1.14-.524-.215-.218-.321-.528-.321-.932 0-.457.172-.82.518-1.09.346-.268.82-.403 1.42-.403.615 0 1.104.144 1.467.43.364.287.545.673.545 1.156v.019h-.844a.82.82 0 0 0-.335-.636c-.204-.15-.482-.224-.832-.224s-.617.061-.8.183a.608.608 0 0 0-.27.537c0 .167.056.299.17.394.114.095.327.178.64.249l.838.198c.599.142 1.01.323 1.236.544.225.22.337.536.337.945 0 .539-.189.957-.567 1.254-.378.299-.905.448-1.584.448-.663 0-1.172-.158-1.527-.474-.355-.316-.538-.772-.547-1.368zm6.27.377c0 .232.034.387.1.464.065.077.187.116.364.116a4.531 4.531 0 0 0 .468-.024v.74a6.607 6.607 0 0 1-.389.057 2.74 2.74 0 0 1-.306.02c-.408 0-.694-.08-.859-.237-.163-.158-.246-.438-.246-.841v-3.476h-.771v-.691h.771V38.01h.869v1.446h.93v.691h-.93v3.181zm5.236-.367h.858c-.094.57-.341 1.02-.743 1.348-.403.329-.909.493-1.52.493-.717 0-1.283-.242-1.698-.725-.415-.483-.622-1.142-.622-1.977 0-.883.205-1.573.617-2.07.412-.496.98-.744 1.703-.744.744 0 1.318.23 1.725.687.406.458.61 1.104.61 1.938 0 .107 0 .186-.003.237a1.44 1.44 0 0 1-.011.15h-3.73c.01.545.145.966.406 1.264.26.298.622.447 1.085.447.354 0 .646-.09.876-.273.23-.182.379-.44.447-.775zm-2.818-1.388h2.837c-.003-.484-.126-.857-.368-1.12-.24-.262-.583-.393-1.027-.393-.427 0-.765.13-1.01.386-.247.259-.39.634-.432 1.127zm4.742 3.06v-5.177h.839v.928c.138-.348.326-.608.562-.781.237-.172.526-.259.87-.259.065 0 .112.001.14.003a.556.556 0 0 1 .087.012v.918a.975.975 0 0 0-.077-.007 2.864 2.864 0 0 0-.13-.002c-.463 0-.817.126-1.06.38-.242.253-.363.62-.363 1.104v2.881h-.868z" fill="#FFF"/><path d="M296.469 2.806h.287V.846h.673V.604h-1.63v.242h.67v1.96zm3.116 0h.278l-.137-2.202h-.363l-.392 1.065c-.098.278-.176.52-.232.741h-.01a8.965 8.965 0 0 0-.222-.741l-.375-1.065h-.363l-.153 2.202h.27l.06-.944c.02-.33.035-.7.042-.974h.007c.062.262.15.546.254.856l.356 1.049h.216l.389-1.069c.11-.303.202-.578.277-.836h.01c-.003.275.017.644.033.95l.055.968z" fill="#553982"/><path d="M65.46 14.332l-6.514-9.305v7.86h1.312V14.2h-4.421v-1.311h1.311V2.398h-1.311v-1.31h3.18l6.521 9.363V2.4h-1.311V1.087h4.42V2.4h-1.311v11.933H65.46zm7.396-3.934l-.984 2.49h1.316v1.311h-3.552v-1.311h.774L75.14.918h2.047l4.725 11.97h.773v1.311h-4.899v-1.311h1.315l-.989-2.49h-5.256zm.54-1.364h4.175l-2.093-5.272-2.083 5.272zm13.962-6.529h-3.33v1.417H82.61V1.087h12.234v2.835h-1.417V2.505h-3.332v10.383h1.312v1.311h-5.36v-1.311h1.311V2.505zM99.943 2.4v10.489h1.312V14.2h-5.361v-1.311h1.312V2.398h-1.312v-1.31h5.36v1.31h-1.311zm9.298 12.127c-2.037 0-3.645-.614-4.82-1.842-1.175-1.228-1.762-2.909-1.762-5.04 0-2.132.587-3.813 1.762-5.042 1.175-1.228 2.783-1.843 4.82-1.843 2.038 0 3.646.615 4.824 1.843 1.177 1.23 1.767 2.91 1.767 5.041 0 2.132-.59 3.813-1.767 5.04-1.178 1.229-2.786 1.843-4.824 1.843zm0-1.31c1.113 0 2.006-.511 2.677-1.53.672-1.017 1.008-2.366 1.008-4.043 0-1.684-.336-3.032-1.008-4.049-.671-1.016-1.564-1.523-2.677-1.523-1.109 0-1.998.507-2.67 1.523-.67 1.017-1.006 2.365-1.006 4.05 0 1.682.335 3.032 1.006 4.047.672 1.016 1.561 1.524 2.67 1.524zm17.61 1.116l-6.513-9.305v7.86h1.31V14.2h-4.42v-1.311h1.311V2.398h-1.311v-1.31h3.18l6.52 9.363V2.4h-1.31V1.087h4.42V2.4h-1.311v11.933h-1.876zm7.395-3.934l-.984 2.49h1.316V14.2h-3.552v-1.311h.775l4.73-11.97h2.047l4.725 11.97h.773V14.2h-4.9v-1.311h1.316l-.989-2.49h-5.257zm.54-1.364h4.176l-2.093-5.272-2.082 5.272zm20.102 5.165h-9.975v-1.311h1.311V2.398h-1.311v-1.31h5.36v1.31h-1.312v10.383h4.51v-1.426h1.417v2.844z" fill="#0A0A0F"/><path d="M4.178 25.212v4.865H5.49v1.31H.13v-1.31h1.31v-10.49H.13v-1.311h5.36v1.311H4.178v4.314h5.29v-4.314H8.157v-1.311h5.359v1.311h-1.311v10.49h1.311v1.31h-5.36v-1.31h1.312v-4.865h-5.29zm14.746.487l-3.698-6.112h-.775v-1.311h4.908v1.311h-1.09l2.787 4.553 2.75-4.553h-1.08v-1.311h3.401v1.311h-.766l-3.7 6.112v4.378h1.312v1.31h-5.36v-1.31h1.311v-4.378zm12.17.302v4.076h1.426v1.31h-5.36v-1.31h1.311v-10.49H27.16v-1.311h5.696c1.4 0 2.484.304 3.257.912.77.608 1.155 1.462 1.155 2.56 0 1.394-.467 2.451-1.4 3.172-.933.721-2.3 1.081-4.101 1.081h-.674zm0-1.31h.433c1.021 0 1.788-.245 2.299-.732.51-.486.766-1.218.766-2.194 0-.725-.218-1.27-.655-1.633-.437-.363-1.096-.545-1.976-.545h-.868v5.103zm16.953 6.83l-6.513-9.306v7.862h1.312v1.31h-4.422v-1.31h1.312v-10.49h-1.312v-1.311h3.18l6.521 9.364v-8.053h-1.31v-1.311h4.42v1.311h-1.312V31.52h-1.876zm11.183.194c-2.038 0-3.644-.615-4.82-1.843-1.174-1.228-1.762-2.908-1.762-5.04s.588-3.812 1.763-5.041c1.175-1.229 2.781-1.843 4.82-1.843 2.036 0 3.645.614 4.823 1.843 1.178 1.229 1.767 2.91 1.767 5.041 0 2.132-.589 3.812-1.767 5.04-1.178 1.228-2.787 1.843-4.824 1.843zm0-1.311c1.114 0 2.007-.51 2.679-1.529.671-1.018 1.006-2.366 1.006-4.043 0-1.684-.335-3.033-1.006-4.05-.672-1.015-1.565-1.523-2.679-1.523-1.107 0-1.997.508-2.669 1.524-.672 1.016-1.007 2.365-1.007 4.049 0 1.682.335 3.032 1.007 4.048.672 1.016 1.562 1.524 2.67 1.524zm12.187-10.71h-3.331v1.417h-1.418v-2.835h12.234v2.835h-1.418v-1.418h-3.33v10.384h1.31v1.31h-5.358v-1.31h1.31V19.693zM84 25.211v4.865h1.311v1.31h-5.359v-1.31h1.311v-10.49h-1.31v-1.311h5.358v1.311H84V23.9h5.29v-4.314h-1.312v-1.311h5.36v1.311h-1.31v10.49h1.31v1.31h-5.36v-1.31h1.312v-4.865H84zm20.515 6.176h-9.932v-1.311h1.311v-10.49h-1.311v-1.311h9.515v2.623h-1.417v-1.312h-4.05v4.367h2.739v-.877h1.31v3.066h-1.31v-.878h-2.738v4.705h4.465v-1.427h1.418v2.845zm5.054-5.6v4.289h1.098v1.31h-5.032v-1.31h1.311v-10.49h-1.31v-1.311h5.652c1.41 0 2.497.285 3.26.854.761.57 1.142 1.381 1.142 2.432 0 .892-.21 1.648-.634 2.268-.424.62-1.061 1.102-1.914 1.444l3.461 4.803h.877v1.31h-3.367l-3.534-5.598h-1.01zm0-1.258h.46c.998 0 1.746-.235 2.242-.703.496-.47.744-1.175.744-2.114 0-.708-.215-1.24-.642-1.594-.428-.355-1.072-.532-1.928-.532h-.876v4.943zm11.871 3.056l-.983 2.49h1.314v1.312h-3.55v-1.311h.773l4.73-11.97h2.048l4.725 11.97h.772v1.31h-4.899v-1.31h1.316l-.988-2.49h-5.258zm.54-1.364h4.176l-2.094-5.271-2.082 5.271zm14.06-.22v4.075h1.426v1.31h-5.36v-1.31h1.311v-10.49h-1.31v-1.311h5.696c1.4 0 2.485.304 3.255.912.771.608 1.157 1.462 1.157 2.56 0 1.394-.466 2.451-1.4 3.172-.933.721-2.3 1.081-4.102 1.081h-.673zm0-1.312h.434c1.022 0 1.789-.244 2.3-.731.51-.486.766-1.218.766-2.194 0-.725-.22-1.27-.656-1.633-.437-.363-1.095-.545-1.975-.545h-.87v5.103zm11.494 1.01l-3.698-6.113h-.775v-1.311h4.908v1.311h-1.09l2.787 4.553 2.748-4.553h-1.079v-1.311h3.402v1.311h-.766l-3.698 6.112v4.378h1.31v1.31h-5.36v-1.31h1.311v-4.378z" fill="#006290"/><path d="M74.969 48.38v-2.905H76.5v1.365c.437.264.85.466 1.236.602.386.136.748.204 1.086.204.655 0 1.183-.18 1.585-.536.401-.358.603-.826.603-1.404 0-.55-.127-.996-.38-1.338-.262-.337-.755-.706-1.48-1.107l-.878-.48c-1.186-.654-2.031-1.29-2.533-1.904a3.174 3.174 0 0 1-.754-2.08c0-1.077.39-1.956 1.17-2.636.78-.683 1.783-1.025 3.012-1.025.643 0 1.283.045 1.918.133.635.09 1.265.226 1.892.408v2.658h-1.533v-1.259a5.209 5.209 0 0 0-1.082-.519 3.278 3.278 0 0 0-1.018-.171c-.502 0-.929.177-1.28.532a1.764 1.764 0 0 0-.527 1.292c0 .414.127.768.38 1.063.254.302.733.653 1.436 1.055l.887.514c1.275.733 2.155 1.394 2.639 1.984.484.597.727 1.306.727 2.126 0 1.2-.447 2.158-1.339 2.875-.892.718-2.078 1.077-3.56 1.077-.55 0-1.137-.044-1.76-.134a19.946 19.946 0 0 1-1.98-.39zm16.678.524c-2.038 0-3.645-.615-4.82-1.843-1.176-1.228-1.764-2.909-1.764-5.04 0-2.133.588-3.813 1.764-5.042 1.175-1.228 2.782-1.843 4.82-1.843 2.037 0 3.645.615 4.823 1.843 1.178 1.23 1.767 2.91 1.767 5.042 0 2.131-.589 3.812-1.767 5.04-1.178 1.228-2.786 1.843-4.823 1.843zm0-1.312c1.113 0 2.005-.51 2.677-1.528.671-1.019 1.008-2.367 1.008-4.043 0-1.685-.337-3.033-1.008-4.05-.672-1.015-1.564-1.523-2.677-1.523-1.108 0-1.998.508-2.67 1.524-.672 1.016-1.008 2.364-1.008 4.049 0 1.682.336 3.032 1.008 4.048.672 1.016 1.562 1.523 2.67 1.523zm19.44.461c-1.328.567-2.77.85-4.322.85-2.192 0-3.9-.607-5.125-1.82-1.226-1.213-1.839-2.907-1.839-5.081 0-2.184.6-3.876 1.794-5.071 1.196-1.196 2.89-1.795 5.08-1.795.675 0 1.368.048 2.082.142.715.095 1.453.237 2.216.426v2.745h-1.417l-.142-1.31a6.362 6.362 0 0 0-1.35-.518 5.44 5.44 0 0 0-1.358-.173c-1.244 0-2.221.493-2.932 1.479-.712.986-1.067 2.345-1.067 4.075 0 1.678.41 3.007 1.23 3.988.82.98 1.93 1.47 3.328 1.47 1.31 0 2.583-.322 3.823-.966v1.56zm5.587-11.277v10.49h1.311v1.31h-5.36v-1.31h1.312v-10.49h-1.312v-1.311h5.36v1.311h-1.31zm12.478 11.8h-9.931v-1.31h1.31v-10.49h-1.31v-1.311h9.515v2.622h-1.418v-1.31h-4.048v4.365h2.738v-.877h1.31v3.066h-1.31v-.877h-2.738v4.705h4.465v-1.427h1.417v2.844zm5.683-11.694h-3.33V38.3h-1.418v-2.835h12.235V38.3h-1.418v-1.418h-3.331v10.384h1.311v1.31h-5.36v-1.31h1.311V36.882zm12.7 6.006l-3.7-6.112h-.774v-1.311h4.908v1.311h-1.09l2.787 4.553 2.748-4.553h-1.079v-1.311h3.402v1.311h-.766l-3.698 6.112v4.378h1.31v1.31h-5.36v-1.31h1.311v-4.378z" fill="#0A0A0F"/><path d="M48.187 12.905v1.283h.547v.545h-1.092v-4.71h1.092v.545h-.547v1.283h3.999v-.505h.506v2.064h-.506v-.505h-3.999zm2.126-4.847h1.873v-.504h.506v2.064h-.506v-.505h-4.04v.505h-.504V7.554h.504v.504h1.662V6.021h-1.662v.506h-.504V4.463h.504v.505h4.04v-.505h.506v2.064h-.506v-.506h-1.873v2.037zm2.379-7.9v3.825h-.506V3.48h-4.04v.504h-.504V.32h1.01v.547h-.506v1.558h1.682V1.37h-.338V.866h1.182v.504h-.338v1.054h1.81V.705h-.548V.16h1.096zM159.26 41.502v7.381c13.431 0 24.32-10.888 24.32-24.317 0-13.432-10.889-24.319-24.32-24.319V7.63c9.361.553 16.805 7.927 16.805 16.936 0 9.01-7.444 16.383-16.805 16.936z" fill="#006290"/><path d="M168.425 24.566c0-4.81-4.019-8.782-9.165-9.292v18.584c5.146-.509 9.165-4.481 9.165-9.292" fill="#0A0A0F"/></g></svg>