<svg class="custom-icon" xmlns="http://www.w3.org/2000/svg" viewBox="0 0 100 100"><circle class="outer-shape" cx="50" cy="50" r="48" fill="#848b90"/><path class="inner-shape" d="M73.642 38.18c-.5-2.676-2.728-4.673-5.287-4.92-6.11-.392-12.244-.71-18.366-.714-6.122-.003-12.232.308-18.343.694-2.569.249-4.796 2.235-5.295 4.921a80.402 80.402 0 0 0 0 23.356c.498 2.686 2.726 4.91 5.295 5.157 6.113.386 12.22.78 18.343.78 6.12 0 12.258-.344 18.366-.74 2.559-.248 4.787-2.539 5.287-5.213a79.591 79.591 0 0 0 0-23.321zM44.445 56.874V42.636l13.26 7.119-13.26 7.119z" fill="#f7f7f7"/></svg>